<mxfile host="app.diagrams.net" agent="Mozilla/5.0 (Windows NT 10.0; Win64; x64; rv:134.0) Gecko/20100101 Firefox/134.0" version="26.0.8">
  <diagram name="Page-1" id="80d4a630-b321-0f5e-ff81-c5a36ef4752d">
    <mxGraphModel dx="1677" dy="680" grid="1" gridSize="10" guides="1" tooltips="1" connect="1" arrows="1" fold="1" page="1" pageScale="1" pageWidth="1100" pageHeight="850" background="none" math="0" shadow="0">
      <root>
        <mxCell id="0" />
        <mxCell id="1" parent="0" />
        <mxCell id="c8de1EBmtqxJ63L9seC3-37" value="" style="ellipse;whiteSpace=wrap;html=1;fillColor=#6d8764;strokeColor=#3A5431;fontColor=#ffffff;" vertex="1" parent="1">
          <mxGeometry x="710" y="520" width="440" height="320" as="geometry" />
        </mxCell>
        <mxCell id="c8de1EBmtqxJ63L9seC3-36" value="" style="ellipse;whiteSpace=wrap;html=1;fillColor=#e1d5e7;strokeColor=#9673a6;" vertex="1" parent="1">
          <mxGeometry x="30" y="516" width="510" height="344" as="geometry" />
        </mxCell>
        <mxCell id="c8de1EBmtqxJ63L9seC3-35" value="" style="ellipse;whiteSpace=wrap;html=1;fillColor=#fff2cc;strokeColor=#d6b656;" vertex="1" parent="1">
          <mxGeometry x="40" y="60" width="510" height="320" as="geometry" />
        </mxCell>
        <mxCell id="c8de1EBmtqxJ63L9seC3-1" value="" style="shape=mxgraph.cisco.computers_and_peripherals.laptop;html=1;pointerEvents=1;dashed=0;fillColor=#036897;strokeColor=#ffffff;strokeWidth=2;verticalLabelPosition=bottom;verticalAlign=top;align=center;outlineConnect=0;" vertex="1" parent="1">
          <mxGeometry x="110" y="130" width="90" height="61" as="geometry" />
        </mxCell>
        <mxCell id="c8de1EBmtqxJ63L9seC3-2" value="" style="fontColor=#0066CC;verticalAlign=top;verticalLabelPosition=bottom;labelPosition=center;align=center;html=1;outlineConnect=0;fillColor=#CCCCCC;strokeColor=#6881B3;gradientColor=none;gradientDirection=north;strokeWidth=2;shape=mxgraph.networks.virtual_pc;" vertex="1" parent="1">
          <mxGeometry x="240" y="90" width="115" height="85" as="geometry" />
        </mxCell>
        <mxCell id="c8de1EBmtqxJ63L9seC3-4" value="" style="fontColor=#0066CC;verticalAlign=top;verticalLabelPosition=bottom;labelPosition=center;align=center;html=1;outlineConnect=0;fillColor=#CCCCCC;strokeColor=#6881B3;gradientColor=none;gradientDirection=north;strokeWidth=2;shape=mxgraph.networks.hub;" vertex="1" parent="1">
          <mxGeometry x="280" y="310" width="100" height="30" as="geometry" />
        </mxCell>
        <mxCell id="c8de1EBmtqxJ63L9seC3-5" value="" style="shape=mxgraph.cisco.computers_and_peripherals.laptop;html=1;pointerEvents=1;dashed=0;fillColor=#036897;strokeColor=#ffffff;strokeWidth=2;verticalLabelPosition=bottom;verticalAlign=top;align=center;outlineConnect=0;" vertex="1" parent="1">
          <mxGeometry x="80" y="240" width="90" height="61" as="geometry" />
        </mxCell>
        <mxCell id="c8de1EBmtqxJ63L9seC3-6" value="" style="endArrow=none;html=1;rounded=0;fontSize=12;startSize=8;endSize=8;curved=1;" edge="1" parent="1" source="c8de1EBmtqxJ63L9seC3-5" target="c8de1EBmtqxJ63L9seC3-4">
          <mxGeometry width="50" height="50" relative="1" as="geometry">
            <mxPoint x="390" y="490" as="sourcePoint" />
            <mxPoint x="440" y="440" as="targetPoint" />
          </mxGeometry>
        </mxCell>
        <mxCell id="c8de1EBmtqxJ63L9seC3-7" value="" style="endArrow=none;html=1;rounded=0;fontSize=12;startSize=8;endSize=8;curved=1;" edge="1" parent="1" source="c8de1EBmtqxJ63L9seC3-1" target="c8de1EBmtqxJ63L9seC3-4">
          <mxGeometry width="50" height="50" relative="1" as="geometry">
            <mxPoint x="290" y="321" as="sourcePoint" />
            <mxPoint x="410" y="307" as="targetPoint" />
          </mxGeometry>
        </mxCell>
        <mxCell id="c8de1EBmtqxJ63L9seC3-8" value="" style="endArrow=none;html=1;rounded=0;fontSize=12;startSize=8;endSize=8;curved=1;" edge="1" parent="1" source="c8de1EBmtqxJ63L9seC3-2" target="c8de1EBmtqxJ63L9seC3-4">
          <mxGeometry width="50" height="50" relative="1" as="geometry">
            <mxPoint x="450" y="255" as="sourcePoint" />
            <mxPoint x="561" y="312" as="targetPoint" />
          </mxGeometry>
        </mxCell>
        <mxCell id="c8de1EBmtqxJ63L9seC3-11" value="" style="endArrow=none;html=1;rounded=0;fontSize=12;startSize=8;endSize=8;curved=1;exitX=0.5;exitY=1;exitDx=0;exitDy=0;exitPerimeter=0;entryX=0;entryY=0.25;entryDx=0;entryDy=0;" edge="1" parent="1" source="c8de1EBmtqxJ63L9seC3-4" target="c8de1EBmtqxJ63L9seC3-46">
          <mxGeometry width="50" height="50" relative="1" as="geometry">
            <mxPoint x="260" y="419" as="sourcePoint" />
            <mxPoint x="390.0050000000001" y="399.44000000000005" as="targetPoint" />
          </mxGeometry>
        </mxCell>
        <mxCell id="c8de1EBmtqxJ63L9seC3-14" value="" style="shape=mxgraph.cisco.computers_and_peripherals.laptop;html=1;pointerEvents=1;dashed=0;fillColor=#036897;strokeColor=#ffffff;strokeWidth=2;verticalLabelPosition=bottom;verticalAlign=top;align=center;outlineConnect=0;" vertex="1" parent="1">
          <mxGeometry x="840" y="722" width="90" height="61" as="geometry" />
        </mxCell>
        <mxCell id="c8de1EBmtqxJ63L9seC3-15" value="" style="shape=mxgraph.cisco.computers_and_peripherals.laptop;html=1;pointerEvents=1;dashed=0;fillColor=#036897;strokeColor=#ffffff;strokeWidth=2;verticalLabelPosition=bottom;verticalAlign=top;align=center;outlineConnect=0;" vertex="1" parent="1">
          <mxGeometry x="1510" y="1251" width="90" height="61" as="geometry" />
        </mxCell>
        <mxCell id="c8de1EBmtqxJ63L9seC3-16" value="" style="shape=mxgraph.cisco.computers_and_peripherals.laptop;html=1;pointerEvents=1;dashed=0;fillColor=#036897;strokeColor=#ffffff;strokeWidth=2;verticalLabelPosition=bottom;verticalAlign=top;align=center;outlineConnect=0;" vertex="1" parent="1">
          <mxGeometry x="960" y="730" width="90" height="61" as="geometry" />
        </mxCell>
        <mxCell id="c8de1EBmtqxJ63L9seC3-17" value="" style="fontColor=#0066CC;verticalAlign=top;verticalLabelPosition=bottom;labelPosition=center;align=center;html=1;outlineConnect=0;fillColor=#CCCCCC;strokeColor=#6881B3;gradientColor=none;gradientDirection=north;strokeWidth=2;shape=mxgraph.networks.hub;" vertex="1" parent="1">
          <mxGeometry x="920" y="560" width="100" height="30" as="geometry" />
        </mxCell>
        <mxCell id="c8de1EBmtqxJ63L9seC3-18" value="" style="fontColor=#0066CC;verticalAlign=top;verticalLabelPosition=bottom;labelPosition=center;align=center;html=1;outlineConnect=0;fillColor=#CCCCCC;strokeColor=#6881B3;gradientColor=none;gradientDirection=north;strokeWidth=2;shape=mxgraph.networks.hub;" vertex="1" parent="1">
          <mxGeometry x="190" y="590" width="100" height="30" as="geometry" />
        </mxCell>
        <mxCell id="c8de1EBmtqxJ63L9seC3-19" value="" style="shape=mxgraph.cisco.computers_and_peripherals.laptop;html=1;pointerEvents=1;dashed=0;fillColor=#036897;strokeColor=#ffffff;strokeWidth=2;verticalLabelPosition=bottom;verticalAlign=top;align=center;outlineConnect=0;" vertex="1" parent="1">
          <mxGeometry x="50" y="671" width="90" height="61" as="geometry" />
        </mxCell>
        <mxCell id="c8de1EBmtqxJ63L9seC3-20" value="" style="shape=mxgraph.cisco.computers_and_peripherals.laptop;html=1;pointerEvents=1;dashed=0;fillColor=#036897;strokeColor=#ffffff;strokeWidth=2;verticalLabelPosition=bottom;verticalAlign=top;align=center;outlineConnect=0;" vertex="1" parent="1">
          <mxGeometry x="160" y="732" width="90" height="61" as="geometry" />
        </mxCell>
        <mxCell id="c8de1EBmtqxJ63L9seC3-22" value="" style="endArrow=none;html=1;rounded=0;fontSize=12;startSize=8;endSize=8;curved=1;exitX=1;exitY=0.75;exitDx=0;exitDy=0;" edge="1" parent="1" source="c8de1EBmtqxJ63L9seC3-48" target="c8de1EBmtqxJ63L9seC3-17">
          <mxGeometry width="50" height="50" relative="1" as="geometry">
            <mxPoint x="859.9949999999999" y="441.55999999999995" as="sourcePoint" />
            <mxPoint x="890" y="510" as="targetPoint" />
          </mxGeometry>
        </mxCell>
        <mxCell id="c8de1EBmtqxJ63L9seC3-23" value="" style="endArrow=none;html=1;rounded=0;fontSize=12;startSize=8;endSize=8;curved=1;entryX=0;entryY=0.5;entryDx=0;entryDy=0;" edge="1" parent="1" source="c8de1EBmtqxJ63L9seC3-46" target="c8de1EBmtqxJ63L9seC3-48">
          <mxGeometry width="50" height="50" relative="1" as="geometry">
            <mxPoint x="449" y="425" as="sourcePoint" />
            <mxPoint x="801" y="416" as="targetPoint" />
          </mxGeometry>
        </mxCell>
        <mxCell id="c8de1EBmtqxJ63L9seC3-24" value="" style="endArrow=none;html=1;rounded=0;fontSize=12;startSize=8;endSize=8;curved=1;exitX=0.5;exitY=0;exitDx=0;exitDy=0;exitPerimeter=0;entryX=0;entryY=0.625;entryDx=0;entryDy=0;entryPerimeter=0;" edge="1" parent="1" source="c8de1EBmtqxJ63L9seC3-18" target="c8de1EBmtqxJ63L9seC3-46">
          <mxGeometry width="50" height="50" relative="1" as="geometry">
            <mxPoint x="240" y="550" as="sourcePoint" />
            <mxPoint x="390.0050000000001" y="450.55999999999995" as="targetPoint" />
          </mxGeometry>
        </mxCell>
        <mxCell id="c8de1EBmtqxJ63L9seC3-25" value="" style="endArrow=none;html=1;rounded=0;fontSize=12;startSize=8;endSize=8;curved=1;" edge="1" parent="1" source="c8de1EBmtqxJ63L9seC3-18" target="c8de1EBmtqxJ63L9seC3-50">
          <mxGeometry width="50" height="50" relative="1" as="geometry">
            <mxPoint x="370" y="671" as="sourcePoint" />
            <mxPoint x="332.73015873015856" y="732" as="targetPoint" />
          </mxGeometry>
        </mxCell>
        <mxCell id="c8de1EBmtqxJ63L9seC3-26" value="" style="endArrow=none;html=1;rounded=0;fontSize=12;startSize=8;endSize=8;curved=1;" edge="1" parent="1" source="c8de1EBmtqxJ63L9seC3-18" target="c8de1EBmtqxJ63L9seC3-20">
          <mxGeometry width="50" height="50" relative="1" as="geometry">
            <mxPoint x="250" y="490" as="sourcePoint" />
            <mxPoint x="360" y="520" as="targetPoint" />
          </mxGeometry>
        </mxCell>
        <mxCell id="c8de1EBmtqxJ63L9seC3-27" value="" style="endArrow=none;html=1;rounded=0;fontSize=12;startSize=8;endSize=8;curved=1;entryX=0.5;entryY=0;entryDx=0;entryDy=0;entryPerimeter=0;exitX=0.1;exitY=1;exitDx=0;exitDy=0;exitPerimeter=0;" edge="1" parent="1" source="c8de1EBmtqxJ63L9seC3-18" target="c8de1EBmtqxJ63L9seC3-19">
          <mxGeometry width="50" height="50" relative="1" as="geometry">
            <mxPoint x="230" y="342" as="sourcePoint" />
            <mxPoint x="340" y="372" as="targetPoint" />
          </mxGeometry>
        </mxCell>
        <mxCell id="c8de1EBmtqxJ63L9seC3-28" value="" style="endArrow=none;html=1;rounded=0;fontSize=12;startSize=8;endSize=8;curved=1;entryX=0.5;entryY=1;entryDx=0;entryDy=0;entryPerimeter=0;exitX=0.5;exitY=0;exitDx=0;exitDy=0;" edge="1" parent="1" source="c8de1EBmtqxJ63L9seC3-62" target="c8de1EBmtqxJ63L9seC3-17">
          <mxGeometry width="50" height="50" relative="1" as="geometry">
            <mxPoint x="829" y="658.6048387096773" as="sourcePoint" />
            <mxPoint x="1000" y="600" as="targetPoint" />
          </mxGeometry>
        </mxCell>
        <mxCell id="c8de1EBmtqxJ63L9seC3-29" value="" style="endArrow=none;html=1;rounded=0;fontSize=12;startSize=8;endSize=8;curved=1;exitX=0.5;exitY=1;exitDx=0;exitDy=0;exitPerimeter=0;" edge="1" parent="1" source="c8de1EBmtqxJ63L9seC3-17" target="c8de1EBmtqxJ63L9seC3-14">
          <mxGeometry width="50" height="50" relative="1" as="geometry">
            <mxPoint x="849" y="467" as="sourcePoint" />
            <mxPoint x="994" y="600" as="targetPoint" />
          </mxGeometry>
        </mxCell>
        <mxCell id="c8de1EBmtqxJ63L9seC3-30" value="" style="endArrow=none;html=1;rounded=0;fontSize=12;startSize=8;endSize=8;curved=1;" edge="1" parent="1" source="c8de1EBmtqxJ63L9seC3-17" target="c8de1EBmtqxJ63L9seC3-16">
          <mxGeometry width="50" height="50" relative="1" as="geometry">
            <mxPoint x="990" y="625" as="sourcePoint" />
            <mxPoint x="1135" y="758" as="targetPoint" />
          </mxGeometry>
        </mxCell>
        <mxCell id="c8de1EBmtqxJ63L9seC3-31" value="&lt;b&gt;&lt;font style=&quot;font-size: 22px;&quot;&gt;NETZ C&lt;br&gt;40.0.0.0&lt;/font&gt;&lt;/b&gt;" style="ellipse;shape=cloud;whiteSpace=wrap;html=1;fillColor=#dae8fc;strokeColor=#6c8ebf;" vertex="1" parent="1">
          <mxGeometry x="470" y="356" width="210" height="160" as="geometry" />
        </mxCell>
        <mxCell id="c8de1EBmtqxJ63L9seC3-32" value="&lt;b&gt;&lt;font style=&quot;font-size: 21px;&quot;&gt;weitere &lt;br&gt;Netze...&lt;br&gt;&lt;/font&gt;&lt;/b&gt;" style="ellipse;shape=cloud;whiteSpace=wrap;html=1;fillColor=#dae8fc;strokeColor=#6c8ebf;" vertex="1" parent="1">
          <mxGeometry x="880" y="130" width="210" height="160" as="geometry" />
        </mxCell>
        <mxCell id="c8de1EBmtqxJ63L9seC3-33" value="" style="endArrow=none;html=1;rounded=0;fontSize=12;startSize=8;endSize=8;curved=1;exitX=0.55;exitY=0.95;exitDx=0;exitDy=0;exitPerimeter=0;entryX=0.993;entryY=0.315;entryDx=0;entryDy=0;entryPerimeter=0;" edge="1" parent="1" source="c8de1EBmtqxJ63L9seC3-32" target="c8de1EBmtqxJ63L9seC3-48">
          <mxGeometry width="50" height="50" relative="1" as="geometry">
            <mxPoint x="459" y="435" as="sourcePoint" />
            <mxPoint x="859.9949999999999" y="390.44000000000005" as="targetPoint" />
          </mxGeometry>
        </mxCell>
        <mxCell id="c8de1EBmtqxJ63L9seC3-38" value="&lt;b&gt;&lt;font style=&quot;font-size: 18px;&quot;&gt;NETZ B&lt;br&gt;30.0.0.0&lt;br&gt;&lt;/font&gt;&lt;/b&gt;" style="text;html=1;align=center;verticalAlign=middle;whiteSpace=wrap;rounded=0;" vertex="1" parent="1">
          <mxGeometry x="325" y="600" width="105" height="40" as="geometry" />
        </mxCell>
        <mxCell id="c8de1EBmtqxJ63L9seC3-39" value="&lt;b&gt;&lt;font style=&quot;font-size: 18px;&quot;&gt;NETZ D&lt;br&gt;50.0.0.0&lt;br&gt;&lt;/font&gt;&lt;/b&gt;" style="text;html=1;align=center;verticalAlign=middle;whiteSpace=wrap;rounded=0;" vertex="1" parent="1">
          <mxGeometry x="1020" y="621" width="105" height="40" as="geometry" />
        </mxCell>
        <mxCell id="c8de1EBmtqxJ63L9seC3-40" value="&lt;b&gt;&lt;font style=&quot;font-size: 18px;&quot;&gt;NETZ A&lt;br&gt;20.0.0.0&lt;br&gt;&lt;/font&gt;&lt;/b&gt;" style="text;html=1;align=center;verticalAlign=middle;whiteSpace=wrap;rounded=0;" vertex="1" parent="1">
          <mxGeometry x="145" y="316" width="105" height="40" as="geometry" />
        </mxCell>
        <mxCell id="c8de1EBmtqxJ63L9seC3-41" value="&lt;b&gt;&lt;font style=&quot;font-size: 18px;&quot;&gt;Router1&lt;/font&gt;&lt;/b&gt;" style="text;html=1;align=center;verticalAlign=middle;whiteSpace=wrap;rounded=0;" vertex="1" parent="1">
          <mxGeometry x="400" y="360" width="105" height="40" as="geometry" />
        </mxCell>
        <mxCell id="c8de1EBmtqxJ63L9seC3-42" value="&lt;b&gt;&lt;font style=&quot;font-size: 18px;&quot;&gt;Router2&lt;/font&gt;&lt;/b&gt;" style="text;html=1;align=center;verticalAlign=middle;whiteSpace=wrap;rounded=0;" vertex="1" parent="1">
          <mxGeometry x="724" y="356" width="105" height="40" as="geometry" />
        </mxCell>
        <mxCell id="c8de1EBmtqxJ63L9seC3-45" value="&lt;b&gt;Client 1&lt;br&gt;IP-Adresse: 20.0.07&lt;br&gt;Gateway: 20.0.0.1&lt;br&gt;&lt;/b&gt;&lt;div&gt;&lt;br/&gt;&lt;/div&gt;" style="text;html=1;align=center;verticalAlign=middle;whiteSpace=wrap;rounded=0;" vertex="1" parent="1">
          <mxGeometry x="355" y="130" width="178" height="40" as="geometry" />
        </mxCell>
        <mxCell id="c8de1EBmtqxJ63L9seC3-46" value="" style="image;html=1;image=img/lib/clip_art/networking/Router_Icon_128x128.png" vertex="1" parent="1">
          <mxGeometry x="370" y="385" width="80" height="80" as="geometry" />
        </mxCell>
        <mxCell id="c8de1EBmtqxJ63L9seC3-48" value="" style="image;html=1;image=img/lib/clip_art/networking/Router_Icon_128x128.png" vertex="1" parent="1">
          <mxGeometry x="780" y="380" width="80" height="80" as="geometry" />
        </mxCell>
        <mxCell id="c8de1EBmtqxJ63L9seC3-49" value="&lt;b&gt;Server B&lt;br&gt;IP-Adresse: 30.0.0.2&lt;br&gt;Gateway: 30.0.0.1&lt;br&gt;&lt;/b&gt;" style="text;html=1;align=center;verticalAlign=middle;whiteSpace=wrap;rounded=0;" vertex="1" parent="1">
          <mxGeometry x="355" y="681.5" width="178" height="40" as="geometry" />
        </mxCell>
        <mxCell id="c8de1EBmtqxJ63L9seC3-50" value="" style="image;html=1;image=img/lib/clip_art/computers/Server_Rack_128x128.png" vertex="1" parent="1">
          <mxGeometry x="280" y="694" width="110" height="97" as="geometry" />
        </mxCell>
        <mxCell id="c8de1EBmtqxJ63L9seC3-53" value="Schnittstelle: 30.0.0.1" style="text;html=1;align=center;verticalAlign=middle;whiteSpace=wrap;rounded=0;strokeColor=default;" vertex="1" parent="1">
          <mxGeometry x="102.5" y="460" width="205" height="30" as="geometry" />
        </mxCell>
        <mxCell id="c8de1EBmtqxJ63L9seC3-54" value="" style="endArrow=classic;html=1;rounded=0;fontSize=12;startSize=8;endSize=8;curved=1;exitX=1;exitY=0.5;exitDx=0;exitDy=0;" edge="1" parent="1" source="c8de1EBmtqxJ63L9seC3-53">
          <mxGeometry width="50" height="50" relative="1" as="geometry">
            <mxPoint x="720" y="460" as="sourcePoint" />
            <mxPoint x="360" y="440" as="targetPoint" />
          </mxGeometry>
        </mxCell>
        <mxCell id="c8de1EBmtqxJ63L9seC3-55" value="Schnittstelle: 20.0.0.1" style="text;html=1;align=center;verticalAlign=middle;whiteSpace=wrap;rounded=0;strokeColor=default;" vertex="1" parent="1">
          <mxGeometry x="95" y="396" width="205" height="30" as="geometry" />
        </mxCell>
        <mxCell id="c8de1EBmtqxJ63L9seC3-56" value="" style="endArrow=classic;html=1;rounded=0;fontSize=12;startSize=8;endSize=8;curved=1;exitX=1;exitY=0.5;exitDx=0;exitDy=0;" edge="1" parent="1" source="c8de1EBmtqxJ63L9seC3-55">
          <mxGeometry width="50" height="50" relative="1" as="geometry">
            <mxPoint x="720" y="460" as="sourcePoint" />
            <mxPoint x="360" y="410" as="targetPoint" />
          </mxGeometry>
        </mxCell>
        <mxCell id="c8de1EBmtqxJ63L9seC3-57" value="Schnittstelle: 40.0.0.1" style="text;html=1;align=center;verticalAlign=middle;whiteSpace=wrap;rounded=0;strokeColor=default;" vertex="1" parent="1">
          <mxGeometry x="960" y="465" width="150" height="30" as="geometry" />
        </mxCell>
        <mxCell id="c8de1EBmtqxJ63L9seC3-58" value="" style="endArrow=classic;html=1;rounded=0;fontSize=12;startSize=8;endSize=8;curved=1;exitX=0;exitY=0.25;exitDx=0;exitDy=0;" edge="1" parent="1" source="c8de1EBmtqxJ63L9seC3-57">
          <mxGeometry width="50" height="50" relative="1" as="geometry">
            <mxPoint x="720" y="460" as="sourcePoint" />
            <mxPoint x="870" y="440" as="targetPoint" />
          </mxGeometry>
        </mxCell>
        <mxCell id="c8de1EBmtqxJ63L9seC3-60" value="externe Schnittstelle" style="text;html=1;align=center;verticalAlign=middle;whiteSpace=wrap;rounded=0;strokeColor=default;" vertex="1" parent="1">
          <mxGeometry x="930" y="350" width="150" height="30" as="geometry" />
        </mxCell>
        <mxCell id="c8de1EBmtqxJ63L9seC3-61" value="" style="endArrow=classic;html=1;rounded=0;fontSize=12;startSize=8;endSize=8;curved=1;exitX=0;exitY=0.5;exitDx=0;exitDy=0;" edge="1" parent="1" source="c8de1EBmtqxJ63L9seC3-60">
          <mxGeometry width="50" height="50" relative="1" as="geometry">
            <mxPoint x="650" y="490" as="sourcePoint" />
            <mxPoint x="870" y="400" as="targetPoint" />
          </mxGeometry>
        </mxCell>
        <mxCell id="c8de1EBmtqxJ63L9seC3-62" value="" style="image;html=1;image=img/lib/clip_art/computers/Server_Rack_128x128.png" vertex="1" parent="1">
          <mxGeometry x="740" y="640" width="110" height="97" as="geometry" />
        </mxCell>
        <mxCell id="c8de1EBmtqxJ63L9seC3-63" value="&lt;b&gt;Server D&lt;br&gt;IP-Adresse: 50.0.0.3&lt;br&gt;Gateway: 50.0.0.1&lt;br&gt;&lt;/b&gt;" style="text;html=1;align=center;verticalAlign=middle;whiteSpace=wrap;rounded=0;" vertex="1" parent="1">
          <mxGeometry x="720" y="581" width="178" height="40" as="geometry" />
        </mxCell>
      </root>
    </mxGraphModel>
  </diagram>
</mxfile>
